<?xml version="1.0" encoding="UTF-8"?>
<svg id="Calque_1" data-name="Calque 1" xmlns="http://www.w3.org/2000/svg" viewBox="0 0 519.99 182.99">
  <defs>
    <style>
      .cls-1 {
        fill: #dcf8ff;
      }

      .cls-2 {
        fill: #fefefe;
      }

      .cls-3 {
        fill: #caf1fc;
      }
    </style>
  </defs>
  <path class="cls-2" d="M519.91,73.97c0,35.15-.05,70.29,.08,105.44,.01,2.98-.6,3.58-3.58,3.58-170.94-.09-341.89-.09-512.83,0C.6,182.99,0,182.39,0,179.41c.13-35.15,.08-70.29,.08-105.44,7.37-.6,14.25,1.22,20.51,4.89,3.38,1.98,5.16,1.42,7.71-1.47,7.86-8.87,16.56-9.28,25.18-1.37,2.09,1.92,3.87,1.62,5.81,.69,6.8-3.24,13.34-2.01,19.59,1.26,2.93,1.53,5.52,1.92,8.4,.36,3.31-1.79,6.63-1.88,10.04-.24,2.74,1.32,5.29,1.24,7.96-.6,2.88-1.97,6.17-3.19,9.74-3.54,12.95-1.24,24.09,2.05,32.18,12.84,1.26,1.68,2.63,2.38,4.62,2.15,7.61-.88,13.62,2.11,18.46,7.78,1.48,1.74,2.83,2.18,5.13,1.11,8.01-3.72,12.01-2.57,16.81,4.72,1.11,1.69,1.65,2.08,3.19,.53,3.41-3.43,7.48-5.53,12.49-5.11,2,.17,2.93-.93,3.87-2.47,6.8-11.16,24.69-16.4,37.01-6.38,1.74,1.42,3.78,2.37,6.02,1.68,4.4-1.35,8.53,.04,12.59,1.21,2.45,.71,4.07,.68,6.27-1.02,7.77-6.02,17.3-6.6,24.29-.86,5.11,4.2,9.37,9.32,16.8,8.93,.43-.02,.96,.33,1.31,.66,1.67,1.54,3.05,1.03,4.87-.06,6.55-3.9,13.17-3.87,19.64,.36,1.24,.81,2.49,2.06,4.05,1.49,5.2-1.88,11.72,2.7,16.06-3.29,.15-.2,.63-.24,.95-.22,3.66,.21,4.08-1.95,4.45-5.03,1.44-11.91,11.33-18.64,23.16-16.09,2.17,.47,4.1,.72,5.71-1.48,7.82-10.73,18.73-12.71,30.55-9.28,5.38,1.56,10.51,1.89,15.9,1.83,5.95-.07,10.48,2.87,14.05,7.34,1.2,1.5,1.91,3.4,2.85,5.13,.52-.3,.89-.4,1.07-.64,8.53-11.43,19.34-12.89,31.05-5.23,3.13,2.05,7.44,4.57,12,2.59,5.58-2.42,11.4-3.48,17.47-3.2l.02,.03Z"/>
  <path class="cls-1" d="M519.91,73.97c-6.07-.29-11.88,.77-17.47,3.2-4.56,1.98-8.87-.54-12-2.59-11.72-7.66-22.52-6.2-31.05,5.23-.18,.24-.55,.33-1.07,.64-.94-1.73-1.65-3.63-2.85-5.13-3.57-4.48-8.09-7.41-14.05-7.34-5.39,.06-10.52-.27-15.9-1.83-11.83-3.43-22.73-1.45-30.55,9.28-1.61,2.2-3.54,1.95-5.71,1.48-11.83-2.55-21.72,4.18-23.16,16.09-.37,3.08-.79,5.24-4.45,5.03-.32-.02-.8,.02-.95,.22-4.34,5.99-10.86,1.41-16.06,3.29-1.56,.57-2.81-.68-4.05-1.49-6.47-4.23-13.09-4.27-19.64-.36-1.82,1.09-3.2,1.6-4.87,.06-.35-.32-.88-.68-1.31-.66-7.43,.38-11.69-4.73-16.8-8.93-6.99-5.75-16.52-5.16-24.29,.86-2.2,1.7-3.82,1.73-6.27,1.02-4.07-1.18-8.19-2.56-12.59-1.21-2.24,.69-4.28-.26-6.02-1.68-12.32-10.02-30.21-4.78-37.01,6.38-.94,1.54-1.86,2.64-3.87,2.47-5.01-.42-9.08,1.69-12.49,5.11-1.54,1.55-2.07,1.16-3.19-.53-4.81-7.29-8.8-8.44-16.81-4.72-2.3,1.07-3.65,.63-5.13-1.11-4.84-5.67-10.84-8.66-18.46-7.78-2,.23-3.37-.48-4.62-2.15-8.09-10.79-19.24-14.08-32.18-12.84-3.58,.34-6.86,1.56-9.74,3.54-2.68,1.83-5.22,1.91-7.96,.6-3.41-1.64-6.73-1.55-10.04,.24-2.88,1.56-5.48,1.17-8.4-.36-6.25-3.27-12.79-4.5-19.59-1.26-1.94,.93-3.72,1.23-5.81-.69-8.62-7.91-17.32-7.49-25.18,1.37-2.56,2.89-4.34,3.45-7.71,1.47-6.26-3.68-13.14-5.49-20.51-4.89V31.02c13.21-.39,22.87,5.6,29.73,16.56,1.05,1.67,1.61,3.55,4.26,3.48,5.5-.14,9.96,2.37,13.55,6.31,1.37,1.5,2.51,1.9,4.29,1.08,5.67-2.6,11.33-2.4,16.56,.92,2.24,1.42,3.03,1.06,4.71-.8,9.56-10.56,21.95-10.13,30.57,1.1,1.74,2.26,3.02,2.43,5.36,1.34,6.92-3.24,13.96-2.8,20.67,.46,3.38,1.64,4.4,1.04,5.36-2.54,5.14-19.15,28.89-27.42,43.84-11.35,3.16,3.4,5.83,6.37,11.04,4.5,2.24-.8,4.63,.45,6.79,1.15,2.71,.87,5.11,.66,7.75-.19,9.99-3.21,19.1,.95,23.18,10.68,.91,2.17,1.45,3.14,4.2,2.6,3.63-.72,7.47,.17,10.28,2.64,2.37,2.09,3.61,1.76,5.69-.29,7.81-7.7,15.53-7.86,23.59-.61,1.57,1.41,2.53,1.65,4.66,.62,7.95-3.85,15.7-3.28,22.77,2.39,1.43,1.14,2.73,2.79,4.74,1.41,1.94-1.34,4.47-2.1,4.35-5.43-.27-7.54,7.04-11.6,12.86-9.54,1.86,.66,3.25,.02,4.67-.85,9.42-5.79,16.08-5.38,24.27,1.72,2.05,1.78,3.4,2.11,5.2-.4,5.54-7.72,13.31-11.1,22.71-10.94,2.04,.03,3.79-.23,5.48-1.73,7.03-6.25,13.48-5.91,19.66,1.33,1.99,2.33,3.31,2.15,5.81,1.15,4.4-1.77,8.96-3.99,13.88-1.73,3.76,1.73,6.41,.66,9.22-2.27,5.85-6.11,12.25-7.37,19.46-4.04,5.44,2.51,10,6.09,10.92,12.57,.69,4.86,4.23,5.7,8.15,6.36,3.59,.6,3.36-2.64,4.41-4.36,2.62-4.31,6.6-6,11.26-6.2,2.76-.12,4.43-1.06,6.15-3.3,6.96-9.06,15.96-14.36,27.79-13.8v42.98l-.03-.03Z"/>
  <path class="cls-3" d="M519.91,31c-11.83-.57-20.82,4.74-27.79,13.8-1.72,2.24-3.39,3.18-6.15,3.3-4.66,.2-8.65,1.89-11.26,6.2-1.05,1.72-.82,4.96-4.41,4.36-3.92-.66-7.46-1.5-8.15-6.36-.92-6.48-5.47-10.06-10.92-12.57-7.21-3.33-13.62-2.07-19.46,4.04-2.8,2.93-5.45,4.01-9.22,2.27-4.92-2.26-9.48-.04-13.88,1.73-2.5,1-3.81,1.18-5.81-1.15-6.18-7.24-12.62-7.57-19.66-1.33-1.69,1.5-3.44,1.77-5.48,1.73-9.39-.16-17.16,3.23-22.71,10.94-1.8,2.51-3.15,2.18-5.2,.4-8.19-7.1-14.85-7.51-24.27-1.72-1.42,.87-2.81,1.51-4.67,.85-5.83-2.06-13.13,2-12.86,9.54,.12,3.33-2.4,4.09-4.35,5.43-2,1.38-3.31-.27-4.74-1.41-7.06-5.67-14.82-6.24-22.77-2.39-2.12,1.03-3.09,.79-4.66-.62-8.07-7.25-15.78-7.09-23.59,.61-2.08,2.05-3.32,2.38-5.69,.29-2.81-2.48-6.65-3.36-10.28-2.64-2.75,.54-3.29-.43-4.2-2.6-4.09-9.74-13.19-13.9-23.18-10.68-2.64,.85-5.04,1.06-7.75,.19-2.16-.7-4.55-1.95-6.79-1.15-5.21,1.87-7.88-1.1-11.04-4.5-14.95-16.08-38.69-7.81-43.84,11.35-.96,3.58-1.98,4.18-5.36,2.54-6.72-3.26-13.75-3.7-20.67-.46-2.34,1.1-3.63,.92-5.36-1.34-8.62-11.23-21.01-11.66-30.57-1.1-1.68,1.86-2.47,2.22-4.71,.8-5.22-3.31-10.89-3.51-16.56-.92-1.78,.82-2.92,.42-4.29-1.08-3.59-3.93-8.06-6.45-13.55-6.31-2.65,.07-3.21-1.81-4.26-3.48C22.93,36.6,13.27,30.61,.07,31V.02C15.54-.4,27.19,6.55,35.88,18.87c1.72,2.44,3.17,3.57,6.02,2.11,1.81-.93,3.82-1.12,5.85-.81,4.41,.68,8.13-.81,11.15-4.46,5.79-7.01,16.75-6.13,20.9,1.92,1.56,3.02,2.75,3.64,6,2.19,13.39-6,28.53-.13,34.45,10.36,2.6,4.61,11.48,4.41,14.11,.09,2.5-4.1,7.06-5.83,12.05-4.21,2.15,.7,3.67,.83,5.12-1.24,7.16-10.17,22.61-11.3,31.25,1.92,1.1,1.69,1.74,3.41,4.34,3.32,7.09-.24,12.97,2.46,17.46,7.98,1.64,2.01,2.8,3.01,5.46,.77,3.72-3.13,8.31-3.01,12.64-.88,1.78,.88,3.22,1.01,5.14,.19,12.59-5.36,20.64-1.44,25.8,6.52,2.26,3.48,6.11,1.18,8.36,3.4,3.48,3.43,5.09-.09,7.22-1.78,6.15-4.9,16.73-4.61,22.52,1.07,2.66,2.61,4.66,3.17,7.47,.56,1.84-1.71,4.13-2.99,6.64-3.26,6.2-.65,12.28-.68,18.11-4.14,3.29-1.95,7.5,.52,9.72,4.11,1.21,1.96,2.13,2.05,3.85,.76,1.18-.88,2.74-2.04,4-1.89,7.42,.88,10.71-3.51,14.85-8.89,7.63-9.95,20.42-10.51,30.05-2.53,1.84,1.53,3.5,.91,5.36,1.17,7.4,1.04,12.07-1.14,16.79-7.66,5.5-7.6,14.78-9.02,24-6.37,2.69,.77,3.94,.5,5.47-2.12,7.46-12.75,21.78-14.13,31.4-2.89,3.89,4.54,9.65,2.38,13.98,5.1,.93,.58,2.07-2.26,3.1-3.51C495.2,5.3,506.13-.3,519.89,.02V31h.02Z"/>
</svg>