<?xml version="1.0" encoding="UTF-8"?>
<svg id="Calque_1" data-name="Calque 1" xmlns="http://www.w3.org/2000/svg" viewBox="0 0 520 196.97">
  <defs>
    <style>
      .cls-1 {
        fill: #fefefe;
      }
    </style>
  </defs>
  <path class="cls-1" d="M519.92,71.86c-.01-20.83,0-41.66,0-62.49-6.07-.29-11.88,.77-17.47,3.2-4.56,1.98-8.87-.54-12-2.59-11.72-7.66-22.52-6.2-31.05,5.23-.18,.24-.55,.33-1.07,.64-.94-1.73-1.65-3.63-2.85-5.13-3.57-4.48-8.09-7.41-14.05-7.34-5.39,.06-10.52-.27-15.9-1.83-11.83-3.43-22.73-1.45-30.55,9.28-1.61,2.2-3.54,1.95-5.71,1.48-11.83-2.55-21.72,4.18-23.16,16.09-.37,3.08-.79,5.24-4.45,5.03-.32-.02-.8,.02-.95,.22-4.34,5.99-10.86,1.41-16.06,3.29-1.56,.57-2.81-.68-4.05-1.49-6.47-4.23-13.09-4.27-19.64-.36-1.82,1.09-3.2,1.6-4.87,.06-.35-.32-.88-.68-1.31-.66-7.43,.38-11.69-4.73-16.8-8.93-6.99-5.75-16.52-5.16-24.29,.86-2.2,1.7-3.82,1.73-6.27,1.02-4.07-1.18-8.19-2.56-12.59-1.21-2.24,.69-4.28-.26-6.02-1.68-12.32-10.02-30.21-4.78-37.01,6.38-.94,1.54-1.86,2.64-3.87,2.47-5.01-.42-9.08,1.69-12.49,5.11-1.54,1.55-2.07,1.16-3.19-.53-4.81-7.29-8.8-8.44-16.81-4.72-2.3,1.07-3.65,.63-5.13-1.11-4.84-5.67-10.84-8.66-18.46-7.78-2,.23-3.37-.48-4.62-2.15-8.09-10.79-19.24-14.08-32.18-12.84-3.58,.34-6.86,1.56-9.74,3.54-2.68,1.83-5.22,1.91-7.96,.6-3.41-1.64-6.73-1.55-10.04,.24-2.88,1.56-5.48,1.17-8.4-.36-6.25-3.27-12.79-4.5-19.59-1.26-1.94,.93-3.72,1.23-5.81-.69-8.62-7.91-17.32-7.49-25.18,1.37-2.56,2.89-4.34,3.45-7.71,1.47C14.33,10.58,7.45,8.77,.08,9.36,.08,44.51,.13,79.66,0,114.8c0,.57,.03,1.04,.09,1.45v80.72H520V71.86h-.08Z"/>
</svg>